<?xml version="1.0" encoding="utf-8"?>
<!-- Generator: Adobe Illustrator 24.0.1, SVG Export Plug-In . SVG Version: 6.00 Build 0)  -->
<svg version="1.1" id="Calque_1" xmlns="http://www.w3.org/2000/svg" xmlns:xlink="http://www.w3.org/1999/xlink" x="0px" y="0px"
	 viewBox="0 0 123.5 123.4" style="enable-background:new 0 0 123.5 123.4;" xml:space="preserve">
<style type="text/css">
	.st0{fill:#FFFFFF;}
</style>
<title>facebook</title>
<path class="st0" d="M61.7,0.2C27.7,0.2,0.1,27.8,0,61.8c0,0.1,0,0.3,0,0.4c0,0.6,0,1.1,0,1.7c1,28.3,21.2,52.3,48.9,58.2V82.4
	c-1.3-0.3-2.6-0.4-3.9-0.5c-8,0.1-6.7-0.3-6.7-7.1c-0.1-9.9,0-9.9,10.4-10.8c0-4.6-0.1-9,0-13.4c0.3-11.6,7.5-18.6,19.1-18.7
	c5.6-0.1,11.2,0,17.4,0c0,5.4,0.1,10.3-0.1,15.1c0,0.8-1.6,2.1-2.6,2.3c-2.1,0.2-4.3,0.3-6.4,0.1c-5.8,0.1-6.8,1.1-6.8,7.1
	c0,2.4,0,4.8,0,7.9c4.1,0,7.9,0.1,11.6-0.1c2.9-0.2,4.3,0.7,3.9,3.9c-0.5,4.1,0.6,9.4-1.6,11.9c-1.9,2.2-7.4,1.3-11.3,1.8
	c-0.7,0.1-1.5,0.2-2.6,0.4V123c30-3.7,52.9-28.6,54.1-58.9c0-0.6,0-1.3,0-1.9v-0.4C123.3,27.8,95.8,0.3,61.7,0.2z"/>
</svg>
