<?xml version="1.0" encoding="utf-8"?>
<!-- Generator: Adobe Illustrator 24.0.1, SVG Export Plug-In . SVG Version: 6.00 Build 0)  -->
<svg version="1.1" id="Calque_1" xmlns="http://www.w3.org/2000/svg" xmlns:xlink="http://www.w3.org/1999/xlink" x="0px" y="0px"
	 viewBox="0 0 134.9 135.2" style="enable-background:new 0 0 134.9 135.2;" xml:space="preserve">
<style type="text/css">
	.st0{fill:#4C4C4C;}
</style>
<g>
	<path class="st0" d="M10.2,68.9c0-14.9,0-29.7,0-44.6c0-12.4,7.3-19.6,19.7-19.6c24.9,0,49.8,0,74.8,0c12.5,0,19.7,7.1,19.8,19.5
		c0,20.6,0.1,41.2,0,61.8c-0.1,27.5-20.3,47.4-47.9,47.4c-15.5,0-31,0-46.5,0c-12.6,0-19.8-7.2-19.8-19.9
		C10.2,98.6,10.2,83.8,10.2,68.9z M17.3,69c0,15.1,0,30.2,0,45.3c0,7.6,4.1,11.9,11.6,12c16,0.1,32,0.1,48,0c7.4,0,11.5-4.2,12-11.5
		c0.6-9.7,7.3-16.4,17-17.2c7.8-0.6,11.3-4.4,11.3-12.2c0-20.6,0-41.2,0-61.7c0-7.6-4.1-11.9-11.7-11.9c-25.5-0.1-51.1-0.1-76.6,0
		c-7.6,0-11.7,4.3-11.7,11.9C17.3,38.8,17.3,53.9,17.3,69z M113.6,103.9c-18.7,1.2-17.2,7-18.2,18.3
		C103.5,118.1,109.5,112.2,113.6,103.9z"/>
	<path class="st0" d="M67,47.4c-7.9,0-15.8,0-23.6,0c-2.5,0-4.5-0.7-4.4-3.4c0-2.7,2-3.6,4.5-3.6c16,0,32,0,48.1,0
		c2.5,0,4.4,0.9,4.4,3.6c0,2.8-2,3.5-4.5,3.4C83.2,47.4,75.1,47.4,67,47.4z"/>
	<path class="st0" d="M66.9,68.9c-7.7,0-15.5,0-23.2,0c-2.5,0-4.9-0.4-4.8-3.4c0-3,2.3-3.6,4.8-3.6c15.8,0,31.5,0,47.3,0
		c2.5,0,4.8,0.6,4.8,3.6c0,3.1-2.3,3.4-4.8,3.4C83,68.8,75,68.9,66.9,68.9z"/>
	<path class="st0" d="M60.1,90.3c-5.6,0-11.2,0-16.7,0c-2.4,0-4.5-0.7-4.5-3.5c0-2.7,2.1-3.6,4.5-3.6c11.2,0,22.3,0,33.5,0
		c2.5,0,4.7,0.7,4.6,3.7c-0.1,2.9-2.3,3.3-4.6,3.3C71.2,90.3,65.7,90.3,60.1,90.3z"/>
</g>
</svg>
