<?xml version="1.0" encoding="utf-8"?>
<!-- Generator: Adobe Illustrator 24.0.1, SVG Export Plug-In . SVG Version: 6.00 Build 0)  -->
<svg version="1.1" id="Calque_1" xmlns="http://www.w3.org/2000/svg" xmlns:xlink="http://www.w3.org/1999/xlink" x="0px" y="0px"
	 viewBox="0 0 134.9 135.2" style="enable-background:new 0 0 134.9 135.2;" xml:space="preserve">
<style type="text/css">
	.st0{fill:#4C4C4C;}
</style>
<title>twitter</title>
<g>
	<path class="st0" d="M34.5,0c22,0,43.9,0,65.9,0c1.4,0.2,2.8,0.4,4.1,0.7c15.3,3.4,25.1,12.7,29.3,27.8c0.5,2,0.7,4,1.1,6.1
		c0,22,0,43.9,0,65.9c-0.1,0.5-0.1,0.9-0.3,1.4c-0.9,3.5-1.3,7.2-2.8,10.5c-6.7,14.6-18.3,22.3-34.3,22.6c-20,0.3-40.1,0.1-60.1,0.1
		c-7.8,0-15-2.1-21.3-6.6C5.4,120.9,0,110.3,0,97.1C-0.1,77.4,0,57.7,0,38c0-2.5,0.1-5.1,0.7-7.6C4.1,15.1,13.4,5.3,28.5,1.1
		C30.4,0.6,32.5,0.4,34.5,0z M11.9,67.5c0,9.8,0,19.5,0,29.3c0,3.1,0.3,6.1,1.4,9.1c3.8,10.7,13,17.2,24.6,17.2
		c19.7,0,39.4,0.1,59,0c2.9,0,6-0.4,8.8-1.4c10.8-3.6,17.2-13,17.2-24.7c0-19.6,0.1-39.3-0.1-58.9c0-2.9-0.4-6-1.3-8.8
		C117.9,18.6,108.6,12.1,97,12c-19.7,0-39.4,0-59.2,0c-8.8,0-16,3.5-21.3,10.7c-3.4,4.6-4.7,9.8-4.7,15.5
		C11.9,47.9,11.9,57.7,11.9,67.5z"/>
	<path class="st0" d="M67.5,102.3c-19.1,0-34.8-15.7-34.8-34.8s15.8-34.8,34.8-34.8c19.1,0.1,34.7,15.6,34.7,34.7
		C102.3,86.5,86.6,102.2,67.5,102.3z M90.2,67.5C90.2,55,80,44.7,67.4,44.7c-12.5,0-22.8,10.2-22.8,22.8c0,12.5,10.2,22.8,22.8,22.8
		S90.2,80.1,90.2,67.5z"/>
	<path class="st0" d="M103.7,22.6c4.8,0,8.9,4,8.8,8.8c0,4.8-4,8.7-8.8,8.7s-8.9-4-8.8-8.8C95,26.5,98.9,22.6,103.7,22.6z"/>
</g>
</svg>
