<?xml version="1.0" encoding="utf-8"?>
<!-- Generator: Adobe Illustrator 24.0.1, SVG Export Plug-In . SVG Version: 6.00 Build 0)  -->
<svg version="1.1" id="Calque_1" xmlns="http://www.w3.org/2000/svg" xmlns:xlink="http://www.w3.org/1999/xlink" x="0px" y="0px"
	 viewBox="0 0 134.9 135.2" style="enable-background:new 0 0 134.9 135.2;" xml:space="preserve">
<style type="text/css">
	.st0{fill:#FFFFFF;}
</style>
<g>
	<path class="st0" d="M2.9,48.9C6.2,27.6,18,13.1,38.2,5.5c3.9-1.5,8.2-2,12.3-2.9c3,0,6-0.1,9-0.1c1.5,0.3,2.9,0.5,4.4,0.8
		c34.5,6.1,53.6,41.9,39.4,74c-0.7,1.7-0.6,2.6,0.7,3.9c7,6.9,13.8,13.9,20.9,20.8c3.8,3.7,7.1,7.6,7.8,13.1
		c-0.1,1.4-0.2,2.8-0.3,4.3c-1.9,7.1-6.4,11.5-13.5,13.3c-1.6,0-3.1,0.1-4.6,0.1c-5-1-8.7-3.9-12.2-7.5
		c-6.8-7.1-13.9-13.9-20.7-20.9c-1.4-1.5-2.5-1.6-4.4-0.8C48,116.2,15.4,101.9,5.3,72.1c-1.2-3.4-1.7-7-2.5-10.5
		c-0.3-1.7-0.5-3.4-0.5-5.2C2.4,52.6,2.9,48.9,2.9,48.9z M55.4,14.7C33.1,14.6,14.6,33,14.6,55.4c0,22.2,18.2,40.6,40.5,40.8
		C77.3,96.3,96,77.7,96,55.4C96,33.2,77.7,14.8,55.4,14.7z M120.6,111.1c-0.4-1.2-0.5-2-0.9-2.4c-4.3-4.4-8.5-8.8-13-13
		c-1.5-1.4-3.5-0.9-4.9,0.6c-1.4,1.5-1.8,3.5-0.4,5c4.1,4.3,8.2,8.6,12.6,12.6c0.8,0.7,2.9,0.8,3.9,0.3
		C119.1,113.6,119.8,112,120.6,111.1z"/>
</g>
</svg>
