<?xml version="1.0" encoding="utf-8"?>
<!-- Generator: Adobe Illustrator 24.0.1, SVG Export Plug-In . SVG Version: 6.00 Build 0)  -->
<svg version="1.1" id="Calque_1" xmlns="http://www.w3.org/2000/svg" xmlns:xlink="http://www.w3.org/1999/xlink" x="0px" y="0px"
	 viewBox="0 0 134.9 135.2" style="enable-background:new 0 0 134.9 135.2;" xml:space="preserve">
<style type="text/css">
	.st0{fill:#4C4C4C;}
</style>
<g>
	<g>
		<path class="st0" d="M71.3,133.4c-2.6,0-5.1,0-7.7,0c-0.3-0.1-0.7-0.2-1-0.2c-9.2-0.6-17.9-3-25.9-7.5C15,113.6,3.3,95.1,1.7,70.4
			C1,58.5,3.6,47.1,9.4,36.7C21.5,15.1,40,3.4,64.7,1.9c11.9-0.7,23.2,1.9,33.6,7.6c18.6,10.2,29.9,25.8,33.9,46.6
			c0.5,2.5,0.7,5.1,1,7.6c0,2.6,0,5.1,0,7.7c-0.1,0.4-0.2,0.7-0.2,1.1c-0.6,9.2-3.1,17.9-7.5,25.9c-10.2,18.5-25.8,29.9-46.6,33.9
			C76.4,132.9,73.9,133.1,71.3,133.4z M67.5,116.5c27-0.1,48.9-22,48.8-48.9c0-27-21.9-48.9-48.9-48.9s-49,22.1-48.9,49
			C18.7,94.8,40.6,116.6,67.5,116.5z"/>
		<path class="st0" d="M59,76.1c-0.5,0-1,0-1.5,0c-4.8,0-9.7,0-14.5,0c-4,0-7.1-2.2-8.3-5.5c-2-5.7,2-11.3,8.2-11.4
			c4.8-0.1,9.7,0,14.5,0c0.5,0,0.9,0,1.5,0h16.9c0.5,0,0.9,0,1.4,0c4.8,0,9.7,0,14.5,0c4,0,7.1,2.1,8.3,5.5c2.1,5.7-2,11.4-8.3,11.4
			c-4.8,0-9.6,0-14.4,0c-0.3,0-0.7,0-1.4,0H59z"/>
	</g>
</g>
</svg>
