<?xml version="1.0" encoding="utf-8"?>
<!-- Generator: Adobe Illustrator 24.0.1, SVG Export Plug-In . SVG Version: 6.00 Build 0)  -->
<svg version="1.1" id="Calque_1" xmlns="http://www.w3.org/2000/svg" xmlns:xlink="http://www.w3.org/1999/xlink" x="0px" y="0px"
	 viewBox="0 0 134.9 135.2" style="enable-background:new 0 0 134.9 135.2;" xml:space="preserve">
<style type="text/css">
	.st0{fill:#4C4C4C;}
</style>
<g>
	<path class="st0" d="M5.1,68.2c0-13.1-0.1-26.1,0-39.2c0.1-8.7,3.8-15.4,11.7-19.1c2.9-1.4,6.3-2.1,9.5-2.1
		c15.8-0.2,31.5-0.1,47.3-0.1c5.8,0,9.9,3.9,9.9,9.3c0,5.3-4.1,9.1-9.8,9.1c-15.5,0-30.9,0-46.4,0c-3.4,0-3.8,0.4-3.8,3.9
		c0,25.5,0,51.1,0,76.6c0,3.4,0.5,3.8,3.9,3.8c25.5,0,50.9,0,76.4,0c3.6,0,4-0.4,4-4c0-14.8,0-29.5,0-44.3c0-5.8,2.8-9.5,7.8-10.3
		c4.9-0.9,9.8,2.8,10.4,7.8c0.1,0.8,0.1,1.7,0.1,2.5c0,14.9,0,29.8,0,44.7c0,8.9-3.5,15.8-11.6,19.6c-3,1.4-6.6,2.2-10,2.2
		c-25.9,0.2-51.8,0.1-77.7,0.1c-10.6,0-18.2-5.7-20.9-15.4c-0.6-2.1-0.7-4.4-0.7-6.6C5.1,93.9,5.1,81,5.1,68.2z"/>
	<path class="st0" d="M99.7,19.5c5.4,5.7,10.6,11.3,16,17.1c-13,12.2-25.9,24.3-39,36.6c-5.3-5.7-10.6-11.3-16-17
		C73.7,43.9,86.6,31.8,99.7,19.5z"/>
	<path class="st0" d="M118.6,33.9c-5.4-5.7-10.6-11.3-16.1-17.1c2.5-2.4,4.9-4.7,7.4-6.9c5.1-4.7,5.4-4.7,10.1,0.3
		c2.7,2.8,5.4,5.7,8,8.6c2.3,2.5,2.3,4.1-0.2,6.5C124.9,28.1,121.8,30.9,118.6,33.9z"/>
	<path class="st0" d="M73.8,75.8C66.2,77.6,59,79.2,51.3,81c2.2-7.5,4.3-14.6,6.6-22.2C63.3,64.5,68.4,70,73.8,75.8z"/>
</g>
</svg>
