<?xml version="1.0" encoding="utf-8"?>
<!-- Generator: Adobe Illustrator 24.0.1, SVG Export Plug-In . SVG Version: 6.00 Build 0)  -->
<svg version="1.1" id="Calque_1" xmlns="http://www.w3.org/2000/svg" xmlns:xlink="http://www.w3.org/1999/xlink" x="0px" y="0px"
	 viewBox="0 0 134.9 135.2" style="enable-background:new 0 0 134.9 135.2;" xml:space="preserve">
<style type="text/css">
	.st0{fill:#4C4C4C;}
</style>
<g>
	<path class="st0" d="M39.3,134.9c-2.1-0.6-4.2-1.4-5.3-3.3c-0.8-1.3-1.6-2.9-1.7-4.4c-0.8-8.5-1.5-16.9-2.1-25.4
		c-0.8-9.3-1.5-18.5-2.3-27.8c-0.7-8.5-1.4-17-2-25.5c-0.2-2.6,1.3-4,4-4.1c12.6,0,25.1,0,37.7,0c12.4,0,24.8,0,37.2,0
		c3.7,0,4.9,1.4,4.6,5.1c-0.8,9.2-1.5,18.3-2.2,27.5c-0.7,9.3-1.5,18.5-2.3,27.8c-0.5,6.7-1.3,13.4-1.6,20
		c-0.2,5.1-2.1,8.6-7.2,10.1C77,134.9,58.2,134.9,39.3,134.9z M63.5,90c0,2.3,0,4.6,0,6.8c0,8.4,0,16.8,0,25.2
		c0,2.1,0.9,3.5,2.6,4.2c2.9,1.1,5.6-1,5.6-4.5c0-21.1,0-42.2,0-63.4c0-0.6,0-1.1-0.2-1.7c-0.4-1.8-1.9-3-3.7-3.1
		c-1.8-0.1-3.5,1-4,2.7c-0.2,0.7-0.3,1.5-0.3,2.2C63.5,69,63.5,79.5,63.5,90z M39.5,59C39.5,59,39.5,59,39.5,59
		c0.4,4.7,0.6,9.4,0.9,14c1,16.4,2,32.7,3.1,49.1c0.2,2.8,1.9,4.6,4.3,4.4c2.4-0.1,4-2.2,3.8-4.9c-0.1-2-0.3-4-0.4-6
		C50.1,97.8,49,80,47.9,62.2c-0.1-1.8-0.2-3.7-0.5-5.5c-0.3-1.8-2-3-3.8-3.1c-1.9,0-3.6,1.2-4,3C39.5,57.4,39.5,58.2,39.5,59z
		 M93.6,90.2c0.6-10.6,1.2-21.3,1.9-31.9c0.2-2.6-1.4-4.5-3.7-4.7c-2.4-0.2-4.2,1.5-4.3,4.1c-0.4,5.9-0.7,11.8-1.1,17.7
		c-0.9,15.4-1.9,30.9-2.8,46.3c-0.2,2.6,1.5,4.6,3.8,4.7c2.4,0.1,4.2-1.6,4.3-4.3C92.4,111.5,93,100.9,93.6,90.2z"/>
	<path class="st0" d="M67.6,36.2c-16.1,0-32.2,0-48.3,0c-1,0-2.2-0.3-3-0.9c-1.1-0.7-1.5-2-1-3.3c0.9-2.8,1.8-5.6,2.8-8.3
		c0.9-2.4,2.9-3.4,5.4-3.4c2.6,0,5.3,0,7.9,0c26.5,0,53,0,79.6,0c4,0,5.5,1.1,6.8,4.8c0.7,2,1.4,4,2,6c1.1,3.2-0.4,5.2-3.8,5.2
		C99.8,36.3,83.7,36.2,67.6,36.2z"/>
	<path class="st0" d="M56.2,8.5c0,1.2,0,2.3,0,3.6c-2.7,0-5.3,0-7.9,0c-0.8-5.4,0.1-8.9,4-10.9c1.1-0.6,2.5-0.8,3.8-0.9
		c7.6-0.1,15.3-0.1,22.9,0c4.6,0,7.8,3.2,8,7.8c0,1.3,0,2.6,0,4c-0.3,0-0.5,0.1-0.7,0.1c-2.4,0-4.8,0-7.4,0c0-1.2,0-2.4,0-3.7
		C71.3,8.5,63.8,8.5,56.2,8.5z"/>
</g>
</svg>
