<svg id="Calque_1" data-name="Calque 1" xmlns="http://www.w3.org/2000/svg" viewBox="0 0 129.27 108.65"><defs><style>.cls-1{fill:#fff;}</style></defs><title>twitter</title><path class="cls-1" d="M3596.81,3039.43c12.84-.09,25-2.46,37.29-10.74-11.73-3-20.83-7.75-24.68-19.42l9.54-.6c-12.11-5.53-18.38-13.94-19.39-26.79l10.14,2.55c-11.22-15.29-12.85-25.25-5.66-35.8,14.54,16.19,32.77,25.11,54.6,27.81a29.13,29.13,0,0,0,.36-3.65c-.4-11.78,4.66-20.68,15-26,10.07-5.23,20-4.13,29.49,2.34a11,11,0,0,0,7.62,1.3c3.91-.79,7.6-2.67,12.47-3.31-2.58,4-5.16,8.06-8,12.51l9.59-2.52,1,1c-2.65,3-4.92,6.55-8,8.95-3.69,2.83-4.42,6.1-4.67,10.43-1.36,24.51-9,46.37-30.33,60.57-26.78,17.82-55,18.21-83.64,4.21a11.55,11.55,0,0,1-2.06-1.3C3597.09,3040.72,3597.08,3040.23,3596.81,3039.43Z" transform="translate(-3596.81 -2943.45)"/></svg>