<?xml version="1.0" encoding="utf-8"?>
<!-- Generator: Adobe Illustrator 24.0.1, SVG Export Plug-In . SVG Version: 6.00 Build 0)  -->
<svg version="1.1" id="Calque_1" xmlns="http://www.w3.org/2000/svg" xmlns:xlink="http://www.w3.org/1999/xlink" x="0px" y="0px"
	 viewBox="0 0 129.3 108.7" style="enable-background:new 0 0 129.3 108.7;" xml:space="preserve">
<style type="text/css">
	.st0{fill:#454D56;}
</style>
<title>twitter</title>
<path class="st0" d="M0,96c12.8-0.1,25-2.5,37.3-10.7c-11.7-3-20.8-7.8-24.7-19.4l9.5-0.6C10,59.7,3.8,51.3,2.8,38.4L12.9,41
	C1.7,25.7,0.1,15.7,7.2,5.2C21.8,21.4,40,30.3,61.8,33c0.2-1.2,0.3-2.4,0.4-3.6c-0.4-11.8,4.7-20.7,15-26c10.1-5.2,20-4.1,29.5,2.3
	c2.3,1.3,5,1.8,7.6,1.3c3.9-0.8,7.6-2.7,12.5-3.3c-2.6,4-5.2,8.1-8,12.5l9.6-2.5l1,1c-2.6,3-4.9,6.6-8,8.9
	c-3.7,2.8-4.4,6.1-4.7,10.4c-1.4,24.5-9,46.4-30.3,60.6c-26.8,17.8-55,18.2-83.6,4.2C2,98.5,1.3,98,0.7,97.5C0.3,97.3,0.3,96.8,0,96
	z"/>
</svg>
