<?xml version="1.0" encoding="utf-8"?>
<!-- Generator: Adobe Illustrator 24.0.1, SVG Export Plug-In . SVG Version: 6.00 Build 0)  -->
<svg version="1.1" id="Calque_1" xmlns="http://www.w3.org/2000/svg" xmlns:xlink="http://www.w3.org/1999/xlink" x="0px" y="0px"
	 viewBox="0 0 134.9 135.2" style="enable-background:new 0 0 134.9 135.2;" xml:space="preserve">
<style type="text/css">
	.st0{fill:#4C4C4C;}
</style>
<g>
	<path class="st0" d="M0,70.8c2-6.1,6-10.8,10.1-15.4c10.8-12,23.9-20.4,39.7-24.4c18.7-4.7,36.6-2.1,53.5,7.2
		c12.3,6.8,22.2,16.1,29.7,27.9c2.5,4,2.6,7.9,0,12c-11.4,17.8-27.1,29.8-47.6,35.1c-20.8,5.4-40.2,1.6-58.2-9.8
		C16.9,97,8.5,88.6,2.1,78.2c-0.9-1.4-1.4-3-2.1-4.5C0,72.8,0,71.8,0,70.8z M96.8,45.8c9.5,17.9,2.3,35.3-9,43.8
		c-11.4,8.6-27.8,9.1-39.4,0.9c-6.1-4.4-10.7-10-13-17.2c-3-9.4-2-18.5,2.7-27.2c-0.2,0-0.3,0-0.4,0c-0.2,0.1-0.5,0.2-0.7,0.4
		c-11.2,6-20,14.6-27,25.2c-0.4,0.7-0.2,1.1,0.2,1.6c6.2,9.3,13.9,17.1,23.4,23c19.1,11.7,39,13.2,59.5,4.3
		c13.3-5.8,23.6-15.4,31.6-27.4c0.4-0.6,0.4-1.1-0.1-1.6c-2.2-2.9-4.2-5.9-6.5-8.6C112.3,55.8,105.2,50.1,96.8,45.8z M66,39.7
		c-5.2,0.2-10.3,2.4-14.5,6.5c-4.5,4.4-6.9,9.8-7,16.1c0,2.3,1.5,3.9,3.7,3.9c2.2,0,3.5-1.5,3.6-4.2c0.2-5.1,2.5-9,6.5-12.1
		c2.7-2.1,5.9-2.9,9.2-3c1.9-0.1,3.2-1.2,3.5-3C71.5,41.4,69.6,39.7,66,39.7z"/>
</g>
</svg>
